<svg width="64" height="64" viewBox="0 0 64 64" fill="none" xmlns="http://www.w3.org/2000/svg">
  <rect width="64" height="64" rx="12" fill="#F0F4FF"></rect>
  <path d="M20 42C20 38.6863 22.6863 36 26 36H28V34C28 30.6863 30.6863 28 34 28H36V26C36 22.6863 38.6863 20 42 20C45.3137 20 48 22.6863 48 26V42C48 45.3137 45.3137 48 42 48H26C22.6863 48 20 45.3137 20 42Z" fill="#5B67F3"></path>
  <path d="M28 34V36H32C33.1046 36 34 36.8954 34 38V40H36C37.1046 40 38 40.8954 38 42V44H42C43.1046 44 44 43.1046 44 42V26C44 24.8954 43.1046 24 42 24C40.8954 24 40 24.8954 40 26V28H38C36.8954 28 36 28.8954 36 30V32H34C32.8954 32 32 32.8954 32 34H28Z" fill="white"></path>
</svg>
